HIERARCHY
ROOT hip
{
  OFFSET 0 0 0
  CHANNELS 6 Xposition Yposition Zposition Zrotation Yrotation Xrotation
  JOINT abdomen
  {
    OFFSET 0 20.6881 -0.73152
    CHANNELS 3 Zrotation Xrotation Yrotation
    JOINT chest
    {
      OFFSET 0 11.7043 -0.48768
      CHANNELS 3 Zrotation Xrotation Yrotation
      JOINT neck
      {
        OFFSET 0 22.1894 -2.19456
        CHANNELS 3 Zrotation Xrotation Yrotation
        JOINT head
        {
          OFFSET -0.24384 7.07133 1.2192
          CHANNELS 3 Zrotation Xrotation Yrotation
          JOINT leftEye
          {
            OFFSET 4.14528 8.04674 8.04672
            CHANNELS 3 Zrotation Xrotation Yrotation
            End Site
            {
              OFFSET 1 0 0
            }
          }
          JOINT rightEye
          {
            OFFSET -3.6576 8.04674 8.04672
            CHANNELS 3 Zrotation Xrotation Yrotation
            End Site
            {
              OFFSET 1 0 0
            }
          }
        }
      }
      JOINT rCollar
      {
        OFFSET -2.68224 19.2634 -4.8768
        CHANNELS 3 Zrotation Xrotation Yrotation
        JOINT rShldr
        {
          OFFSET -8.77824 -1.95073 1.46304
          CHANNELS 3 Zrotation Xrotation Yrotation
          JOINT rForeArm
          {
            OFFSET -28.1742 -1.7115 0.48768
            CHANNELS 3 Zrotation Xrotation Yrotation
            JOINT rHand
            {
              OFFSET -22.5879 0.773209 7.07136
              CHANNELS 3 Zrotation Xrotation Yrotation
              JOINT rThumb1
              {
                OFFSET -1.2192 -0.487915 3.41376
                CHANNELS 3 Zrotation Xrotation Yrotation
                JOINT rThumb2
                {
                  OFFSET -3.37035 -0.52449 3.41376
                  CHANNELS 3 Zrotation Xrotation Yrotation
                  End Site
                  {
                    OFFSET -1.78271 -1.18214 1.43049
                  }
                }
              }
              JOINT rIndex1
              {
                OFFSET -7.75947 0.938293 5.60832
                CHANNELS 3 Zrotation Xrotation Yrotation
                JOINT rIndex2
                {
                  OFFSET -2.54057 -0.884171 1.56538
                  CHANNELS 3 Zrotation Xrotation Yrotation
                  End Site
                  {
                    OFFSET -1.62519 -0.234802 1.16502
                  }
                }
              }
              JOINT rMid1
              {
                OFFSET -8.24714 1.18213 3.41376
                CHANNELS 3 Zrotation Xrotation Yrotation
                JOINT rMid2
                {
                  OFFSET -3.10165 -0.590103 1.0647
                  CHANNELS 3 Zrotation Xrotation Yrotation
                  End Site
                  {
                    OFFSET -2.48547 -0.328903 0.83742
                  }
                }
              }
              JOINT rRing1
              {
                OFFSET -8.82822 0.546677 1.51678
                CHANNELS 3 Zrotation Xrotation Yrotation
                JOINT rRing2
                {
                  OFFSET -2.60934 -0.819778 -0.0198488
                  CHANNELS 3 Zrotation Xrotation Yrotation
                  End Site
                  {
                    OFFSET -2.33842 -0.294052 0.168128
                  }
                }
              }
              JOINT rPinky1
              {
                OFFSET -8.27202 -0.0477905 -0.4584
                CHANNELS 3 Zrotation Xrotation Yrotation
                JOINT rPinky2
                {
                  OFFSET -1.82734 -0.647385 -0.700984
                  CHANNELS 3 Zrotation Xrotation Yrotation
                  End Site
                  {
                    OFFSET -1.69225 -0.51767 -0.607171
                  }
                }
              }
            }
          }
        }
      }
      JOINT lCollar
      {
        OFFSET 2.68224 19.2634 -4.8768
        CHANNELS 3 Zrotation Xrotation Yrotation
        JOINT lShldr
        {
          OFFSET 8.77824 -1.95073 1.46304
          CHANNELS 3 Zrotation Xrotation Yrotation
          JOINT lForeArm
          {
            OFFSET 28.1742 -1.7115 0.48768
            CHANNELS 3 Zrotation Xrotation Yrotation
            JOINT lHand
            {
              OFFSET 22.5879 0.773209 7.07136
              CHANNELS 3 Zrotation Xrotation Yrotation
              JOINT lThumb1
              {
                OFFSET 1.2192 -0.487915 3.41376
                CHANNELS 3 Zrotation Xrotation Yrotation
                JOINT lThumb2
                {
                  OFFSET 3.37035 -0.52449 3.41376
                  CHANNELS 3 Zrotation Xrotation Yrotation
                  End Site
                  {
                    OFFSET 1.78271 -1.18214 1.43049
                  }
                }
              }
              JOINT lIndex1
              {
                OFFSET 7.75947 0.938293 5.60832
                CHANNELS 3 Zrotation Xrotation Yrotation
                JOINT lIndex2
                {
                  OFFSET 2.54057 -0.884171 1.56538
                  CHANNELS 3 Zrotation Xrotation Yrotation
                  End Site
                  {
                    OFFSET 1.62519 -0.234802 1.16502
                  }
                }
              }
              JOINT lMid1
              {
                OFFSET 8.24714 1.18213 3.41376
                CHANNELS 3 Zrotation Xrotation Yrotation
                JOINT lMid2
                {
                  OFFSET 3.10165 -0.590103 1.0647
                  CHANNELS 3 Zrotation Xrotation Yrotation
                  End Site
                  {
                    OFFSET 2.48547 -0.328903 0.83742
                  }
                }
              }
              JOINT lRing1
              {
                OFFSET 8.82822 0.546677 1.51678
                CHANNELS 3 Zrotation Xrotation Yrotation
                JOINT lRing2
                {
                  OFFSET 2.60934 -0.819778 -0.0198488
                  CHANNELS 3 Zrotation Xrotation Yrotation
                  End Site
                  {
                    OFFSET 2.33842 -0.294052 0.168128
                  }
                }
              }
              JOINT lPinky1
              {
                OFFSET 8.27202 -0.0477905 -0.4584
                CHANNELS 3 Zrotation Xrotation Yrotation
                JOINT lPinky2
                {
                  OFFSET 1.82734 -0.647385 -0.700984
                  CHANNELS 3 Zrotation Xrotation Yrotation
                  End Site
                  {
                    OFFSET 1.69225 -0.51767 -0.607171
                  }
                }
              }
            }
          }
        }
      }
    }
  }
  JOINT rButtock
  {
    OFFSET -8.77824 4.35084 1.2192
    CHANNELS 3 Zrotation Xrotation Yrotation
    JOINT rThigh
    {
      OFFSET 0 -1.70687 -2.19456
      CHANNELS 3 Zrotation Xrotation Yrotation
      JOINT rShin
      {
        OFFSET 0 -36.8199 0.73152
        CHANNELS 3 Zrotation Xrotation Yrotation
        JOINT rFoot
        {
          OFFSET 0.73152 -45.1104 -5.12064
          CHANNELS 3 Zrotation Xrotation Yrotation
          End Site
          {
            OFFSET -1.1221 -3.69964 12.103
          }
        }
      }
    }
  }
  JOINT lButtock
  {
    OFFSET 8.77824 4.35084 1.2192
    CHANNELS 3 Zrotation Xrotation Yrotation
    JOINT lThigh
    {
      OFFSET 0 -1.70687 -2.19456
      CHANNELS 3 Zrotation Xrotation Yrotation
      JOINT lShin
      {
        OFFSET 0 -36.8199 0.73152
        CHANNELS 3 Zrotation Xrotation Yrotation
        JOINT lFoot
        {
          OFFSET -0.73152 -45.1104 -5.12064
          CHANNELS 3 Zrotation Xrotation Yrotation
          End Site
          {
            OFFSET 1.1221 -3.69964 12.103
          }
        }
      }
    }
  }
}
MOTION
Frames:	4
Frame Time:	0.00833333
-172.557 69.6574 89.0692 0.0 0.0 0.0 -3.13115 0.00208554 -0.0845016 -0.863215 0.0181964 -0.149329 -2.19471e-14 7.95139e-16 -9.93923e-17 -6.56673e-14 9.54166e-15 -4.02228e-16 -0.0 0.0 0.0 -0.0 0.0 0.0 -1.11836e-14 -4.21253e-17 4.96962e-17 -2.28283e-13 -1.09332e-15 -5.96354e-16 -3.97326e-12 1.15057e-12 1.59028e-14 -4.55566e-11 -1.42454e-12 -3.11694e-13 -1.0746e-10 -5.99117e-13 -6.04305e-13 -1.8559e-10 -1.03686e-12 -1.05674e-12 -1.07457e-10 -5.99535e-13 -6.13847e-13 7.73091 5.47488 0.417314 -1.07461e-10 -5.99336e-13 -6.10667e-13 2.90554 0.965183 0.102902 -1.07454e-10 -5.99634e-13 -6.09871e-13 10.2786 0.731801 0.0259123 -1.07467e-10 -5.95956e-13 -6.04305e-13 2.22167 -0.733487 -0.20892 -1.12798e-14 -4.50372e-17 -1.49089e-16 -2.33032e-13 -8.94531e-16 -2.78299e-15 -3.98802e-12 -1.23207e-12 1.59028e-14 -4.55727e-11 9.6254e-13 -2.98972e-13 -1.07514e-10 -5.92652e-13 -6.07486e-13 -1.85665e-10 -1.02096e-12 -1.0305e-12 -1.07519e-10 -5.92776e-13 -6.01125e-13 -7.73091 5.47488 -0.417314 -1.07513e-10 -5.93173e-13 -6.04305e-13 -2.90554 0.965183 -0.102902 -1.07519e-10 -5.92577e-13 -6.02715e-13 -10.2786 0.731801 -0.0259123 -1.07506e-10 -5.87607e-13 -6.04305e-13 -2.22167 -0.733487 0.20892 -2.03217e-16 0.0 -3.88251e-19 -1.91948 -1.93503 0.014636 -0.00849558 -2.07867 -0.0697165 -0.45793 4.00011 0.13235 2.03217e-16 0.0 3.88251e-19 -2.83892 -9.32618 0.322411 -0.00902049 11.3077 -0.235039 0.528089 -1.99503 -0.0184333
-169.235 66.6762 79.8072 152.312 74.4658 164.358 -5.36181 4.4445 -1.24554 1.10839 -0.0502782 -0.568672 -2.11236 2.16352 0.146311 3.23741 -10.2256 1.76398 -0.0 0.0 0.0 -0.0 0.0 0.0 -7.95163e-14 -9.98955e-13 2.2174e-13 18.2691 13.2376 7.25784 -24.2505 -22.1315 14.6988 0.0838836 6.46102 0.887676 -1.23917e-10 -7.30432e-11 -7.18881e-11 -2.174e-10 -1.24632e-10 -1.25337e-10 -1.23913e-10 -7.30407e-11 -7.18948e-11 7.73091 5.47488 0.417314 -1.23917e-10 -7.30407e-11 -7.18919e-11 2.90554 0.965183 0.102902 -1.23911e-10 -7.30415e-11 -7.18908e-11 10.2786 0.731801 0.0259123 -1.23922e-10 -7.30394e-11 -7.18846e-11 2.22167 -0.733487 -0.20892 -7.9601e-14 -9.98954e-13 2.21498e-13 -23.6353 14.6005 -5.38327 10.1481 -7.00633 -12.4198 -0.11785 -7.65221 1.04149 -2.95903e-10 4.17812e-12 -7.39104e-10 -4.94541e-10 1.0569e-11 -1.28298e-09 -2.95907e-10 4.17655e-12 -7.39094e-10 -7.73091 5.47488 -0.417314 -2.95902e-10 4.1777e-12 -7.39102e-10 -2.90554 0.965183 -0.102902 -2.95909e-10 4.17784e-12 -7.39103e-10 -10.2786 0.731801 -0.0259123 -2.95897e-10 4.18223e-12 -7.39105e-10 -2.22167 -0.733487 0.20892 -2.03217e-16 0.0 -3.88251e-19 -3.39241 -18.2548 -4.50145 0.325759 22.7882 0.228263 -0.630545 0.324166 -0.356013 2.03217e-16 0.0 3.88251e-19 -4.98334 -0.693314 1.94306 -0.0953337 12.1964 -0.758303 0.675201 -4.9918 0.881548
-168.102 66.5411 79.4807 153.33 74.6248 165.809 -7.58489 9.13512 -2.50222 3.19135 -0.132831 -1.01671 -4.35171 4.47351 0.298027 7.42699 -21.0013 3.82574 -0.0 0.0 0.0 -0.0 0.0 0.0 -1.53944e-13 -2.08036e-12 4.65029e-13 33.6688 26.5182 16.1715 -35.0065 -40.4176 37.9548 -0.0505424 13.2139 1.85456 -1.55084e-10 -1.40172e-10 -1.49638e-10 -2.74948e-10 -2.38738e-10 -2.60606e-10 -1.5508e-10 -1.40166e-10 -1.49641e-10 7.73091 5.47488 0.417314 -1.55084e-10 -1.40166e-10 -1.49639e-10 2.90554 0.965183 0.102902 -1.55077e-10 -1.40168e-10 -1.49637e-10 10.2786 0.731801 0.0259123 -1.55086e-10 -1.40168e-10 -1.49631e-10 2.22167 -0.733487 -0.20892 -1.54018e-13 -2.08036e-12 4.6474e-13 -45.2258 29.5822 -12.4271 17.6702 -13.3857 -26.1897 0.0719104 -15.8051 2.21639 -5.1377e-10 6.59321e-12 -1.54877e-09 -8.52714e-10 1.84011e-11 -2.68867e-09 -5.13775e-10 6.59001e-12 -1.54876e-09 -7.73091 5.47488 -0.417314 -5.13769e-10 6.59289e-12 -1.54877e-09 -2.90554 0.965183 -0.102902 -5.13779e-10 6.59253e-12 -1.54878e-09 -10.2786 0.731801 -0.0259123 -5.13767e-10 6.59635e-12 -1.54878e-09 -2.22167 -0.733487 0.20892 -2.03217e-16 0.0 -3.88251e-19 -8.32061 -35.1871 -10.8129 0.2785 49.1208 0.77327 -0.87227 -3.46661 -0.811752 2.03217e-16 0.0 3.88251e-19 -7.80645 8.58686 3.71357 -0.168351 12.871 -1.32244 0.937481 -8.27167 1.8904
-166.986 66.4688 79.1749 154.251 74.8205 167.23 -9.27052 13.3063 -3.65461 5.04859 -0.187178 -1.40736 -6.37041 6.49038 0.44145 11.8564 -30.5508 6.05029 -0.0 0.0 0.0 -0.0 0.0 0.0 -2.16182e-13 -2.99678e-12 6.65121e-13 42.932 36.8408 26.8525 -30.8871 -44.7563 66.903 -0.379334 19.3639 2.8049 -1.56831e-10 -2.17931e-10 -2.14456e-10 -2.81018e-10 -3.71821e-10 -3.73898e-10 -1.56826e-10 -2.17923e-10 -2.14457e-10 7.73091 5.47488 0.417314 -1.5683e-10 -2.17923e-10 -2.14454e-10 2.90554 0.965183 0.102902 -1.56824e-10 -2.17925e-10 -2.14453e-10 10.2786 0.731801 0.0259123 -1.56831e-10 -2.17926e-10 -2.14445e-10 2.22167 -0.733487 -0.20892 -2.16243e-13 -2.99677e-12 6.64793e-13 -60.4133 41.9767 -21.244 21.7197 -17.0386 -38.9842 0.541402 -22.9249 3.36249 -6.7268e-10 1.37197e-11 -2.2161e-09 -1.11229e-09 3.37489e-11 -3.84689e-09 -6.72684e-10 1.37152e-11 -2.21608e-09 -7.73091 5.47488 -0.417314 -6.72679e-10 1.37195e-11 -2.2161e-09 -2.90554 0.965183 -0.102902 -6.7269e-10 1.37187e-11 -2.2161e-09 -10.2786 0.731801 -0.0259123 -6.72678e-10 1.37219e-11 -2.21611e-09 -2.22167 -0.733487 0.20892 -2.03217e-16 0.0 -3.88251e-19 -17.4868 -49.309 -19.949 -1.19161 72.506 2.56453 -1.16448 -7.02581 -1.34216 2.03217e-16 0.0 3.88251e-19 -10.7809 16.5016 5.41616 -0.217796 13.9697 -1.81635 1.25646 -10.975 2.72126
